<svg width="50" height="46" viewBox="0 0 50 46" fill="none" xmlns="http://www.w3.org/2000/svg">
<path d="M7.22129 42.4485C7.06395 43.2619 7.59574 44.0488 8.40908 44.2061C9.22243 44.3635 10.0093 43.8317 10.1667 43.0184L7.22129 42.4485ZM48.5848 3.7912C49.4058 3.68023 49.9813 2.92474 49.8704 2.10378C49.7594 1.28282 49.0039 0.707267 48.1829 0.818242L48.5848 3.7912ZM2.78798 32.3308C2.36111 31.6208 1.43951 31.3913 0.729531 31.8182C0.0195499 32.2451 -0.209956 33.1667 0.216915 33.8766L2.78798 32.3308ZM6.97744 42.2098L5.6919 42.9828L5.69263 42.984L6.97744 42.2098ZM10.5939 43.2606L9.981 41.8916L9.97976 41.8921L10.5939 43.2606ZM21.513 40.0155C22.2691 39.677 22.6077 38.7897 22.2692 38.0336C21.9306 37.2774 21.0433 36.9389 20.2872 37.2774L21.513 40.0155ZM8.69399 42.7334C10.1667 43.0184 10.1666 43.0187 10.1666 43.019C10.1666 43.0189 10.1665 43.0192 10.1665 43.0192C10.1665 43.0192 10.1666 43.0189 10.1667 43.0184C10.1669 43.0173 10.1673 43.0152 10.1679 43.012C10.1692 43.0058 10.1713 42.9953 10.1742 42.9808C10.1801 42.9517 10.1894 42.9064 10.2023 42.8456C10.2281 42.7239 10.2683 42.5403 10.3241 42.3008C10.4357 41.8216 10.6096 41.1193 10.8559 40.2421C11.3489 38.4863 12.1299 36.0371 13.2781 33.2782C15.584 27.7375 19.3243 21.0615 25.0845 16.2002L23.1497 13.9076C16.877 19.2013 12.9058 26.3651 10.5084 32.1255C9.30492 35.0171 8.48629 37.5837 7.96757 39.4311C7.70803 40.3554 7.52308 41.1015 7.40225 41.6204C7.34183 41.8799 7.2974 42.0827 7.26769 42.2227C7.25283 42.2927 7.24164 42.3471 7.23396 42.385C7.23012 42.4039 7.22716 42.4187 7.22506 42.4294C7.224 42.4347 7.22317 42.4389 7.22254 42.4421C7.22223 42.4437 7.22197 42.4451 7.22176 42.4461C7.22165 42.4467 7.22154 42.4473 7.22149 42.4475C7.22138 42.4481 7.22129 42.4485 8.69399 42.7334ZM25.0845 16.2002C36.8971 6.23107 46.2855 4.10201 48.5848 3.7912L48.1829 0.818242C45.3244 1.20465 35.4028 3.56662 23.1497 13.9076L25.0845 16.2002ZM0.216915 33.8766L5.6919 42.9828L8.26297 41.4369L2.78798 32.3308L0.216915 33.8766ZM5.69263 42.984C6.83488 44.8798 9.22116 45.5209 11.2081 44.6291L9.97976 41.8921C9.27866 42.2068 8.56684 41.9412 8.26225 41.4357L5.69263 42.984ZM11.2069 44.6297L21.513 40.0155L20.2872 37.2774L9.981 41.8916L11.2069 44.6297Z" fill="#6941C6"/>
</svg>
